<?xml version="1.0" encoding="UTF-8"?>
<svg width="30px" height="30px" viewBox="0 0 30 30" version="1.1" xmlns="http://www.w3.org/2000/svg" xmlns:xlink="http://www.w3.org/1999/xlink">
    <title>编组 3</title>
    <g id="页面-1" stroke="none" stroke-width="1" fill="none" fill-rule="evenodd">
        <g id="画板" transform="translate(-170.000000, -1102.000000)">
            <g id="编组-3" transform="translate(170.000000, 1102.000000)">
                <rect id="矩形" x="0" y="0" width="30" height="30"></rect>
                <g id="编组" transform="translate(2.000000, 2.000000)" fill="#241F4F" fill-rule="nonzero">
                    <path d="M18.3064983,21.7891594 C15.1620619,21.7891594 12.6129966,19.2048315 12.6129966,16.0168962 C12.6129966,11.4182231 16.5958902,7.26915528 17.8988069,6.03485487 C17.9026155,6.0387162 17.9068412,6.04215476 17.9107888,6.04593153 C18.0145111,5.93053035 18.1609163,5.86408415 18.3149048,5.86249483 C18.4688932,5.86096178 18.6165798,5.92442638 18.7225576,6.03770155 C20.0339256,7.26568854 24,11.3641364 24,16.0168962 C24,19.2048315 21.4509348,21.7891594 18.3064983,21.7891594 L18.3064983,21.7891594 Z M18.6978154,8.3612066 C18.6972316,8.3617703 18.6965921,8.36222126 18.6960083,8.36278496 C18.6068945,8.24364096 18.4679113,8.17365328 18.3204263,8.17365328 C18.1729412,8.17365328 18.0339581,8.24364096 17.9448442,8.36278496 C17.9406742,8.35889544 17.9361983,8.35534415 17.9321395,8.35134189 C16.930022,9.4743684 14.2616935,12.768307 14.2616935,16.0005489 C14.2616935,18.2622164 16.0726329,20.0956428 18.3066373,20.0956428 C20.5406417,20.0956428 22.3514421,18.2621882 22.3514421,16.0005489 C22.3514421,12.7034818 19.7124986,9.4792162 18.6978154,8.3612066 Z M18.8486042,18.7147528 L18.737403,18.7147528 C17.7738525,18.7147528 16.8666628,18.2543141 16.289268,17.4722514 C15.7118733,16.6901888 15.5318131,15.6779697 15.8033592,14.7406849 L15.8164531,14.7406849 C15.9572719,14.3657491 16.3420884,14.146234 16.7312788,14.2188308 C17.1204692,14.2914277 17.4030203,14.6354289 17.4029885,15.0366261 C17.4029885,15.1134017 17.3473879,15.2927139 17.3473879,15.6144161 C17.3473879,16.39272 17.9697189,17.0236601 18.737403,17.0236601 C18.7748778,17.0236601 18.81188,17.0217153 18.8486042,17.0187559 L18.8486042,17.0236601 C19.3092147,17.0236601 19.6826132,17.4022241 19.6826132,17.8692064 C19.6826132,18.3361888 19.3092147,18.7147528 18.8486042,18.7147528 Z M8.89609637,19.9267026 C9.16703119,19.9266625 9.4372251,19.898013 9.70230511,19.8412179 L9.70230511,19.8464039 C9.72974401,19.8435854 9.75754431,19.842148 9.78570601,19.842148 C10.2244409,19.8421472 10.5880767,20.1869381 10.6174069,20.6307472 C10.6467371,21.0745563 10.3317206,21.4654471 9.89690722,21.5247852 L9.89690722,21.5264481 C9.56668358,21.5872857 9.23172793,21.6177954 8.89609637,21.6177954 C5.82535851,21.6177954 3.33603592,19.0940367 3.33603592,15.9808195 C3.33591554,15.5488628 3.38465275,15.1183168 3.48129271,14.6976184 C3.51513911,14.391343 3.71076555,14.1280371 3.99178343,14.0105168 C4.27280131,13.8929965 4.59464014,13.939901 4.83162765,14.1329149 C5.06861517,14.3259289 5.18316426,14.6344395 5.13054558,14.937979 L5.1416657,14.937979 C4.82174875,16.1249398 5.0659873,17.3952575 5.8021994,18.373504 C6.53841151,19.3517505 7.68240902,19.9260603 8.89609637,19.9267026 L8.89609637,19.9267026 Z M13.7055485,7.44080119 C13.420535,7.44079772 13.1553268,7.29299304 13.0025901,7.04903138 C12.9992262,7.0534564 12.995501,7.05748684 12.9923596,7.06216553 C11.5646473,4.92541348 10.0349357,3.35650219 9.31560292,2.65219025 C9.31171088,2.65672802 9.30726283,2.63260176 9.30323179,2.63702679 C9.20956678,2.50332122 9.05782697,2.42389053 8.89606857,2.42389053 C8.73431018,2.42389053 8.58257037,2.50332122 8.48890536,2.63702679 C8.48645894,2.63434922 8.48370671,2.63195351 8.48128808,2.62919139 C6.94540484,4.16752209 1.66801807,9.89570415 1.66801807,15.9808195 C1.66801807,20.027999 4.90413993,23.3088881 8.89609637,23.3088881 C10.3620832,23.3111185 11.7937541,22.8592335 12.9994208,22.0137365 C13.2235846,21.802207 13.5441337,21.7323898 13.8342105,21.8319151 C14.1242874,21.9314403 14.3371379,22.1842667 14.3885262,22.4903381 C14.4399146,22.7964095 14.3215582,23.1063936 14.0802965,23.2976141 C14.0822148,23.3002635 14.0839384,23.3030538 14.0858566,23.3056468 C12.5748088,24.4098446 10.7587463,25.002746 8.89609637,25 C3.98292135,25 0,20.9619614 0,15.9808195 C0,8.5134895 6.72211282,1.80382539 8.47956446,0.177191473 C8.48178849,0.179389893 8.48426271,0.18127828 8.48648674,0.183448516 C8.58679717,0.0718123688 8.72721715,0.00582372944 8.876073,0.000367243002 C9.02492886,-0.00508924344 9.1696827,0.0504460145 9.27768331,0.154446276 C9.28004633,0.151825082 9.28271516,0.149457552 9.28505039,0.146779988 C10.1665145,0.949175309 12.3916784,3.1016827 14.3451778,6.0387162 L14.3390617,6.04621338 C14.5508527,6.29684937 14.5993092,6.64956766 14.4631333,6.94933913 C14.3269575,7.24911061 14.0310806,7.44105249 13.7055485,7.44080119 L13.7055485,7.44080119 Z" id="形状"></path>
                </g>
            </g>
        </g>
    </g>
</svg>