<?xml version="1.0" encoding="UTF-8"?>
<svg width="30px" height="30px" viewBox="0 0 30 30" version="1.1" xmlns="http://www.w3.org/2000/svg" xmlns:xlink="http://www.w3.org/1999/xlink">
    <title>编组 3备份 2</title>
    <g id="页面-1" stroke="none" stroke-width="1" fill="none" fill-rule="evenodd">
        <g id="画板" transform="translate(-311.000000, -1102.000000)">
            <g id="编组-3备份-2" transform="translate(311.000000, 1102.000000)">
                <rect id="矩形" x="0" y="0" width="30" height="30"></rect>
                <g id="编组" transform="translate(3.000000, 5.000000)" fill="#241F4F" fill-rule="nonzero">
                    <path d="M23.7416107,14.4444444 C23.0466215,14.4444444 22.4832215,13.8848004 22.4832215,13.1944444 C22.4832215,12.5040885 23.0466215,11.9444444 23.7416107,11.9444444 C24.4365999,11.9444444 25,12.5040885 25,13.1944444 C25,13.8848004 24.4365999,14.4444444 23.7416107,14.4444444 L23.7416107,14.4444444 Z M24.1610738,8.05555556 L18.4284116,8.05555556 C17.9650855,8.05555556 17.5894855,7.68245951 17.5894855,7.22222222 C17.5894855,6.76198493 17.9650855,6.38888889 18.4284116,6.38888889 L24.1610738,6.38888889 C24.6244,6.38888889 25,6.76198493 25,7.22222222 C25,7.68245951 24.6244,8.05555556 24.1610738,8.05555556 Z M23.7416107,2.5 C23.0466215,2.5 22.4832215,1.94035594 22.4832215,1.25 C22.4832215,0.559644063 23.0466215,0 23.7416107,0 C24.4365999,0 25,0.559644063 25,1.25 C25,1.94035594 24.4365999,2.5 23.7416107,2.5 L23.7416107,2.5 Z M16.2472036,14.4444444 C15.5522144,14.4444444 14.9888143,13.8848004 14.9888143,13.1944444 C14.9888143,12.5040885 15.5522144,11.9444444 16.2472036,11.9444444 C16.9421928,11.9444444 17.5055928,12.5040885 17.5055928,13.1944444 C17.5055928,13.8848004 16.9421928,14.4444444 16.2472036,14.4444444 Z M16.2472036,2.5 C15.5522144,2.5 14.9888143,1.94035594 14.9888143,1.25 C14.9888143,0.559644063 15.5522144,0 16.2472036,0 C16.9421928,0 17.5055928,0.559644063 17.5055928,1.25 C17.5055928,1.94035594 16.9421928,2.5 16.2472036,2.5 L16.2472036,2.5 Z M13.9821029,8.05555556 L0.838926174,8.05555556 C0.375600042,8.05555556 0,7.68245951 0,7.22222222 C0,6.76198493 0.375600042,6.38888889 0.838926174,6.38888889 L13.9821029,6.38888889 C14.445429,6.38888889 14.8210291,6.76198493 14.8210291,7.22222222 C14.8210291,7.68245951 14.445429,8.05555556 13.9821029,8.05555556 Z M8.75279642,2.5 C8.05780722,2.5 7.49440716,1.94035594 7.49440716,1.25 C7.49440716,0.559644063 8.05780722,0 8.75279642,0 C9.44778562,0 10.0111857,0.559644063 10.0111857,1.25 C10.0111857,1.94035594 9.44778562,2.5 8.75279642,2.5 L8.75279642,2.5 Z M1.25838926,2.5 C0.563400063,2.5 4.4408921e-16,1.94035594 4.4408921e-16,1.25 C4.4408921e-16,0.559644063 0.563400063,0 1.25838926,0 C1.95337846,0 2.51677852,0.559644063 2.51677852,1.25 C2.51677852,1.94035594 1.95337846,2.5 1.25838926,2.5 L1.25838926,2.5 Z M1.25838926,11.9444444 C1.95337846,11.9444444 2.51677852,12.5040885 2.51677852,13.1944444 C2.51677852,13.8848004 1.95337846,14.4444444 1.25838926,14.4444444 C0.563400063,14.4444444 4.4408921e-16,13.8848004 4.4408921e-16,13.1944444 C4.4408921e-16,12.5040885 0.563400063,11.9444444 1.25838926,11.9444444 Z M0.838926174,18.3333333 L6.57158837,18.3333333 C7.0349145,18.3333333 7.41051454,18.7064294 7.41051454,19.1666667 C7.41051454,19.626904 7.0349145,20 6.57158837,20 L0.838926174,20 C0.375600042,20 0,19.626904 0,19.1666667 C0,18.7064294 0.375600042,18.3333333 0.838926174,18.3333333 Z M8.75279642,11.9444444 C9.44778562,11.9444444 10.0111857,12.5040885 10.0111857,13.1944444 C10.0111857,13.8848004 9.44778562,14.4444444 8.75279642,14.4444444 C8.05780722,14.4444444 7.49440716,13.8848004 7.49440716,13.1944444 C7.49440716,12.5040885 8.05780722,11.9444444 8.75279642,11.9444444 Z M11.0178971,18.3333333 L24.1610738,18.3333333 C24.6244,18.3333333 25,18.7064294 25,19.1666667 C25,19.626904 24.6244,20 24.1610738,20 L11.0178971,20 C10.554571,20 10.1789709,19.626904 10.1789709,19.1666667 C10.1789709,18.7064294 10.554571,18.3333333 11.0178971,18.3333333 Z" id="形状"></path>
                </g>
            </g>
        </g>
    </g>
</svg>