<?xml version="1.0" encoding="UTF-8"?>
<svg width="30px" height="30px" viewBox="0 0 30 30" version="1.1" xmlns="http://www.w3.org/2000/svg" xmlns:xlink="http://www.w3.org/1999/xlink">
    <title>编组 3备份 3</title>
    <g id="页面-1" stroke="none" stroke-width="1" fill="none" fill-rule="evenodd">
        <g id="画板" transform="translate(-382.000000, -1102.000000)">
            <g id="编组-3备份-3" transform="translate(382.000000, 1102.000000)">
                <rect id="矩形" x="0" y="0" width="30" height="30"></rect>
                <g id="编组" transform="translate(7.250000, 2.250000)" fill="#241F4F" fill-rule="nonzero">
                    <path d="M7.03162417,0.00488199538 C4.57069014,0.115137715 2.6,2.07919573 2.6,4.5 L2.6,14.129 L2.47199806,14.2347999 C0.919523395,15.5480568 0,17.4496521 0,19.5 C0,23.3726876 3.2524049,26.5 7.25,26.5 C11.2475951,26.5 14.5,23.3726876 14.5,19.5 L14.4943274,19.2213704 C14.4150992,17.2779954 13.5099096,15.4883633 12.0280019,14.2347999 L11.9,14.13 L11.9,4.5 C11.9,2.00799561 9.81168216,0 7.25,0 L7.03162417,0.00488199538 Z M7.25,1.5 C8.99613233,1.5 10.4,2.84987121 10.4,4.5 L10.4,14.4995625 C10.4,14.7403888 10.515646,14.9665661 10.7108779,15.1075689 C12.1438638,16.142518 13,17.7539433 13,19.5 C13,22.5308124 10.4320449,25 7.25,25 C4.0679551,25 1.5,22.5308124 1.5,19.5 C1.5,17.7539433 2.3561362,16.142518 3.78912206,15.1075689 C3.98435397,14.9665661 4.1,14.7403888 4.1,14.4995625 L4.1,4.5 C4.1,2.84987121 5.50386767,1.5 7.25,1.5 Z" id="路径"></path>
                    <path d="M7.25,8 C7.62969577,8 7.94349096,8.28215388 7.99315338,8.64822944 L8,8.75 L8,16.75 C8,17.1642136 7.66421356,17.5 7.25,17.5 C6.87030423,17.5 6.55650904,17.2178461 6.50684662,16.8517706 L6.5,16.75 L6.5,8.75 C6.5,8.33578644 6.83578644,8 7.25,8 Z" id="路径"></path>
                    <path d="M7.25,16 C5.45509894,16 4,17.4550989 4,19.25 C4,21.0449011 5.45509894,22.5 7.25,22.5 C9.04490106,22.5 10.5,21.0449011 10.5,19.25 C10.5,17.4550989 9.04490106,16 7.25,16 Z M7.25,17.5 C8.21647394,17.5 9,18.2835261 9,19.25 C9,20.2164739 8.21647394,21 7.25,21 C6.28352606,21 5.5,20.2164739 5.5,19.25 C5.5,18.2835261 6.28352606,17.5 7.25,17.5 Z" id="路径"></path>
                </g>
            </g>
        </g>
    </g>
</svg>