<?xml version="1.0" encoding="UTF-8"?>
<svg width="30px" height="30px" viewBox="0 0 30 30" version="1.1" xmlns="http://www.w3.org/2000/svg" xmlns:xlink="http://www.w3.org/1999/xlink">
    <title>编组 3备份</title>
    <g id="页面-1" stroke="none" stroke-width="1" fill="none" fill-rule="evenodd">
        <g id="画板" transform="translate(-241.000000, -1102.000000)">
            <g id="编组-3备份" transform="translate(241.000000, 1102.000000)">
                <rect id="矩形" x="0" y="0" width="30" height="30"></rect>
                <g id="编组" transform="translate(2.000000, 2.000000)" fill="#241F4F" fill-rule="nonzero">
                    <path d="M19.435123,12.7792619 L19.435123,12.7796254 L4.19463087,12.7796254 C3.73130475,12.7796254 3.35570473,12.4040244 3.35570473,11.9406971 C3.35570473,11.4773698 3.73130475,11.1017688 4.19463087,11.1017688 L19.3791946,11.1017688 L19.3791946,11.1014052 C19.3885347,11.1014052 19.3978188,11.1017688 19.4071588,11.1017688 C21.5002642,11.1016599 23.223044,9.45518809 23.3179202,7.36422875 C23.4127963,5.27326942 21.8462044,3.47754334 19.7617099,3.28787724 C17.6772155,3.09821113 15.8122522,4.58170337 15.5281879,6.65544866 L15.518736,6.65544866 C15.5039627,7.1073508 15.1333504,7.4660461 14.6812081,7.4660461 C14.2290657,7.4660461 13.8584534,7.1073508 13.8436801,6.65544866 L13.8394855,6.65544866 C13.8402964,6.64669584 13.841387,6.63802692 13.8422819,6.62930206 L13.8422819,6.62748439 C13.8424982,6.56321899 13.8500888,6.49919071 13.8649049,6.43665616 C14.2314877,3.70261673 16.5727629,1.59391447 19.4071588,1.59391447 C22.4960011,1.59391447 25,4.09791976 25,7.18676993 C25,10.26628 22.5111857,12.7641891 19.435123,12.7792619 Z M9.20022371,8.3855985 L9.20022371,8.38923386 L4.19463087,8.38923386 C3.73130474,8.38923386 3.3557047,8.01363285 3.3557047,7.55030554 C3.3557047,7.08697822 3.73130474,6.71137722 4.19463087,6.71137722 L9.03243848,6.71137722 C10.4224169,6.71137722 11.549217,5.58457421 11.549217,4.19459226 C11.549217,2.80461031 10.4224169,1.67780731 9.03243848,1.67780731 C7.64246008,1.67780731 6.51565996,2.80461031 6.51565996,4.19459226 L6.51426174,4.19459226 C6.49948843,4.64649439 6.12887617,5.0051897 5.67673378,5.0051897 C5.22459139,5.0051897 4.85397913,4.64649439 4.83920582,4.19459226 L4.83780761,4.19459226 C4.83780761,4.1871258 4.83805928,4.1796873 4.83808725,4.17222084 C4.83808725,4.17034723 4.83780761,4.16852956 4.83780761,4.16662799 C4.83780761,4.16346802 4.83825503,4.16041992 4.838283,4.15728792 C4.85858539,1.86745899 6.7116281,0.0170980098 9.00147823,0.00011768365 C11.2913283,-0.0168626425 13.1716082,1.80581397 13.2258667,4.09509 C13.2801252,6.38436603 11.4883071,8.29407601 9.20022371,8.3855985 L9.20022371,8.3855985 Z M0.838926174,17.1700169 C0.375600042,17.1700169 0,16.7944159 0,16.3310886 C0,15.8677613 0.375600042,15.4921603 0.838926174,15.4921603 C1.30225231,15.4921603 1.67785235,15.8677613 1.67785235,16.3310886 C1.67785235,16.7944159 1.30225231,17.1700169 0.838926174,17.1700169 L0.838926174,17.1700169 Z M0.838926174,12.7796254 C0.375600042,12.7796254 0,12.4040244 0,11.9406971 C0,11.4773698 0.375600042,11.1017688 0.838926174,11.1017688 C1.30225231,11.1017688 1.67785235,11.4773698 1.67785235,11.9406971 C1.67785235,12.4040244 1.30225231,12.7796254 0.838926174,12.7796254 L0.838926174,12.7796254 Z M0.838926174,8.38923386 C0.375600042,8.38923386 0,8.01363285 0,7.55030554 C0,7.08697822 0.375600042,6.71137722 0.838926174,6.71137722 C1.30225231,6.71137722 1.67785235,7.08697822 1.67785235,7.55030554 C1.67785235,8.01363285 1.30225231,8.38923386 0.838926174,8.38923386 L0.838926174,8.38923386 Z M4.19463087,15.4921603 L15.8557047,15.4921603 L15.8557047,15.4987878 C18.4400735,15.6356207 20.4401983,17.8145963 20.3557377,20.4012129 C20.2712771,22.9878296 18.1332646,25.0316822 15.5454745,24.9996281 C12.9576844,24.967574 10.8709529,22.8713908 10.8505872,20.2834757 C10.8505872,20.2803437 10.8501119,20.2772956 10.8501119,20.2741356 C10.8501119,20.272234 10.8503915,20.2704163 10.8503915,20.2685427 C10.8503915,20.2610763 10.8501119,20.2536378 10.8501119,20.2461713 L10.8515101,20.2461713 C10.8662834,19.7942692 11.2368956,19.4355739 11.689038,19.4355739 C12.1411804,19.4355739 12.5117927,19.7942692 12.526566,20.2461713 L12.5279642,20.2461713 C12.5280105,21.9450272 13.9052312,23.3221888 15.6040828,23.3221579 C17.3029343,23.322127 18.6801049,21.9449154 18.6800895,20.2460595 C18.680074,18.5472036 17.3028784,17.1700169 15.6040268,17.1700169 L4.19463087,17.1700169 C3.73130474,17.1700169 3.3557047,16.7944159 3.3557047,16.3310886 C3.3557047,15.8677613 3.73130474,15.4921603 4.19463087,15.4921603 Z" id="形状"></path>
                </g>
            </g>
        </g>
    </g>
</svg>